<?xml version="1.0" encoding="utf-8"?>
<!-- Generator: Adobe Illustrator 27.8.1, SVG Export Plug-In . SVG Version: 6.00 Build 0)  -->
<svg version="1.1" id="Слой_1" xmlns="http://www.w3.org/2000/svg" xmlns:xlink="http://www.w3.org/1999/xlink" x="0px" y="0px"
	 viewBox="0 0 595.28 841.89" style="enable-background:new 0 0 595.28 841.89;" xml:space="preserve">
<style type="text/css">
	.st0{fill:none;stroke:#000000;stroke-miterlimit:10;}
	.st1{fill:#FFFFFF;stroke:#000000;stroke-miterlimit:10;}
	.st2{fill:#FFFFFF;stroke:#000000;stroke-width:3;stroke-miterlimit:10;}
	.st3{fill:none;stroke:#000000;stroke-width:3;stroke-miterlimit:10;}
</style>
<line class="st0" x1="453" y1="312" x2="267.5" y2="529"/>
<rect x="245" y="132" class="st1" width="208" height="180"/>
<rect x="59.5" y="349" class="st1" width="208" height="180"/>
<line class="st0" x1="245" y1="132" x2="59.5" y2="349"/>
<rect x="310" y="192.5" class="st2" width="78" height="59"/>
<rect x="126" y="409" class="st2" width="78" height="59"/>
<line class="st0" x1="453" y1="132" x2="267.5" y2="349"/>
<line class="st0" x1="59.5" y1="529" x2="245" y2="312"/>
<line class="st3" x1="310" y1="192.5" x2="126" y2="409"/>
<line class="st3" x1="388" y1="192.5" x2="204" y2="409"/>
<line class="st3" x1="388" y1="251.5" x2="204" y2="468"/>
<line class="st3" x1="310" y1="251.5" x2="126" y2="468"/>
<line class="st3" x1="245" y1="132" x2="310" y2="192.5"/>
<line class="st3" x1="388" y1="192.5" x2="453" y2="132"/>
<line class="st3" x1="388" y1="251.5" x2="453" y2="312"/>
<line class="st3" x1="310" y1="251.5" x2="245" y2="312"/>
<line class="st3" x1="204" y1="409" x2="263" y2="349"/>
<line class="st3" x1="126" y1="409" x2="64" y2="354"/>
<line class="st3" x1="126" y1="468" x2="59.5" y2="529"/>
<line class="st3" x1="204" y1="468" x2="267.5" y2="529"/>
</svg>
